<svg width="49" height="32" viewBox="0 0 49 32" fill="none" xmlns="http://www.w3.org/2000/svg">
<g clip-path="url(#clip0_1208_22)">
<mask id="mask0_1208_22" style="mask-type:alpha" maskUnits="userSpaceOnUse" x="25" y="7" width="24" height="18">
<path d="M46.7143 7H27.2857C26.0233 7 25 8.02335 25 9.28571V21.8571C25 23.1195 26.0233 24.1429 27.2857 24.1429H46.7143C47.9767 24.1429 49 23.1195 49 21.8571V9.28571C49 8.02335 47.9767 7 46.7143 7Z" fill="white"/>
</mask>
<g mask="url(#mask0_1208_22)">
<path d="M46.7143 7H27.2857C26.0233 7 25 8.02335 25 9.28571V21.8571C25 23.1195 26.0233 24.1429 27.2857 24.1429H46.7143C47.9767 24.1429 49 23.1195 49 21.8571V9.28571C49 8.02335 47.9767 7 46.7143 7Z" fill="white"/>
<path fill-rule="evenodd" clip-rule="evenodd" d="M25 7H35.2857V15H25V7Z" fill="#444379"/>
<path fill-rule="evenodd" clip-rule="evenodd" d="M26.1429 8.14285V9.28571H27.2857V8.14285H26.1429ZM28.4286 8.14285V9.28571H29.5715V8.14285H28.4286ZM30.7143 8.14285V9.28571H31.8572V8.14285H30.7143ZM33 8.14285V9.28571H34.1429V8.14285H33ZM31.8572 9.28571V10.4286H33V9.28571H31.8572ZM29.5715 9.28571V10.4286H30.7143V9.28571H29.5715ZM27.2857 9.28571V10.4286H28.4286V9.28571H27.2857ZM26.1429 10.4286V11.5714H27.2857V10.4286H26.1429ZM28.4286 10.4286V11.5714H29.5715V10.4286H28.4286ZM30.7143 10.4286V11.5714H31.8572V10.4286H30.7143ZM33 10.4286V11.5714H34.1429V10.4286H33ZM26.1429 12.7143V13.8571H27.2857V12.7143H26.1429ZM28.4286 12.7143V13.8571H29.5715V12.7143H28.4286ZM30.7143 12.7143V13.8571H31.8572V12.7143H30.7143ZM33 12.7143V13.8571H34.1429V12.7143H33ZM31.8572 11.5714V12.7143H33V11.5714H31.8572ZM29.5715 11.5714V12.7143H30.7143V11.5714H29.5715ZM27.2857 11.5714V12.7143H28.4286V11.5714H27.2857Z" fill="#A7B6E7"/>
<path fill-rule="evenodd" clip-rule="evenodd" d="M35.2857 7V8.14286H49V7H35.2857ZM35.2857 9.28571V10.4286H49V9.28571H35.2857ZM35.2857 11.5714V12.7143H49V11.5714H35.2857ZM35.2857 13.8571V15H49V13.8571H35.2857ZM25 16.1429V17.2857H49V16.1429H25ZM25 18.4286V19.5714H49V18.4286H25ZM25 20.7143V21.8571H49V20.7143H25ZM25 23V24.1429H49V23H25Z" fill="#ED4C49"/>
<path d="M46.7143 7.57144H27.2857C26.3389 7.57144 25.5714 8.33895 25.5714 9.28573V21.8572C25.5714 22.8039 26.3389 23.5714 27.2857 23.5714H46.7143C47.661 23.5714 48.4286 22.8039 48.4286 21.8572V9.28573C48.4286 8.33895 47.661 7.57144 46.7143 7.57144Z" stroke="black" stroke-opacity="0.1" stroke-width="1.14286"/>
</g>
</g>
<circle cx="16" cy="16" r="14" fill="url(#paint0_linear_1208_22)"/>
<path d="M21.2137 20.2816L21.8356 16.3301H17.9452V13.767C17.9452 12.6857 18.4877 11.6311 20.2302 11.6311H22V8.26699C22 8.26699 20.3945 8 18.8603 8C15.6548 8 13.5617 9.89294 13.5617 13.3184V16.3301H10V20.2816H13.5617V29.8345C14.2767 29.944 15.0082 30 15.7534 30C16.4986 30 17.2302 29.944 17.9452 29.8345V20.2816H21.2137Z" fill="white"/>
<defs>
<linearGradient id="paint0_linear_1208_22" x1="16" y1="2" x2="16" y2="29.917" gradientUnits="userSpaceOnUse">
<stop stop-color="#18ACFE"/>
<stop offset="1" stop-color="#0163E0"/>
</linearGradient>
<clipPath id="clip0_1208_22">
<rect width="24" height="17.1429" fill="white" transform="translate(25 7)"/>
</clipPath>
</defs>
</svg>
