<svg width="35" height="35" viewBox="0 0 35 35" fill="none" xmlns="http://www.w3.org/2000/svg">
<path d="M26.25 0H8.75C3.91751 0 0 3.91751 0 8.75V26.25C0 31.0825 3.91751 35 8.75 35H26.25C31.0825 35 35 31.0825 35 26.25V8.75C35 3.91751 31.0825 0 26.25 0Z" fill="#4762F0"/>
<path d="M19.1241 20.1659C25.8202 16.3 30.552 11.9597 29.6929 10.4716C28.8338 8.98362 22.7091 10.9114 16.013 14.7773C9.31693 18.6433 4.58512 22.9836 5.44423 24.4716C6.30334 25.9597 12.428 24.0319 19.1241 20.1659Z" stroke="url(#paint0_linear_200_120486)" stroke-width="1.94444"/>
<path d="M14.5901 7H19.9901C20.1301 7 20.2101 7.05 20.2301 7.15C20.5501 8.15 20.9201 9.27 21.3401 10.51C21.7801 11.75 22.2301 13.04 22.6901 14.38C23.1701 15.72 23.6501 17.06 24.1301 18.4C24.6101 19.72 25.0601 20.98 25.4801 22.18C25.9001 23.36 26.2701 24.39 26.5901 25.27C26.7101 25.61 26.8001 25.85 26.8601 25.99C26.9201 26.11 27.0201 26.27 27.1601 26.47C27.4001 26.73 27.6501 27.05 27.9101 27.43C27.9901 27.55 28.0001 27.68 27.9401 27.82C27.9001 27.94 27.8001 28 27.6401 28H20.1101C20.1101 28 20.1001 28 20.0801 28C20.0801 28 20.0701 28 20.0501 28C20.0301 28 20.0201 28 20.0201 28V27.97C20.0201 27.97 20.0101 27.97 19.9901 27.97C19.9901 27.97 19.9801 27.97 19.9601 27.97C19.9401 27.97 19.9201 27.97 19.9001 27.97C19.9001 27.95 19.9001 27.94 19.9001 27.94C19.8801 27.94 19.8701 27.94 19.8701 27.94C19.8701 27.92 19.8701 27.91 19.8701 27.91C19.8501 27.91 19.8401 27.91 19.8401 27.91C19.8401 27.89 19.8401 27.88 19.8401 27.88C19.8401 27.86 19.8401 27.85 19.8401 27.85C19.8001 27.85 19.7801 27.83 19.7801 27.79V27.76C19.7801 27.76 19.7801 27.75 19.7801 27.73C19.7801 27.73 19.7701 27.73 19.7501 27.73C19.7501 27.73 19.7501 27.72 19.7501 27.7C19.7501 27.68 19.7501 27.66 19.7501 27.64H19.7801V27.61C19.7801 27.59 19.7801 27.57 19.7801 27.55C19.7801 27.53 19.7801 27.52 19.7801 27.52H19.8401V27.46H19.8701C19.8701 27.44 19.8701 27.43 19.8701 27.43C19.8701 27.41 19.8701 27.4 19.8701 27.4C20.0501 27.18 20.2301 26.9 20.4101 26.56C20.5501 26.34 20.6101 26.17 20.5901 26.05C20.5701 25.91 20.5101 25.66 20.4101 25.3L19.7801 23.38C19.7601 23.26 19.6901 23.2 19.5701 23.2H12.9701C12.8501 23.2 12.7701 23.26 12.7301 23.38L12.2501 24.94C12.2501 24.94 12.2401 24.94 12.2201 24.94C12.1801 25.1 12.1501 25.22 12.1301 25.3C12.0301 25.66 11.9601 25.92 11.9201 26.08C11.9001 26.22 11.9601 26.38 12.1001 26.56C12.2001 26.7 12.3001 26.86 12.4001 27.04C12.5201 27.2 12.6001 27.32 12.6401 27.4C12.7401 27.52 12.7701 27.65 12.7301 27.79C12.7101 27.91 12.6101 27.98 12.4301 28H7.33006C7.17006 28 7.06006 27.94 7.00006 27.82C6.94006 27.68 6.96006 27.55 7.06006 27.43C7.32006 27.05 7.56006 26.73 7.78006 26.47C7.94006 26.27 8.04006 26.11 8.08006 25.99C8.12006 25.85 8.21006 25.62 8.35006 25.3L8.62006 24.34C8.64006 24.34 8.65006 24.34 8.65006 24.34L14.3801 7.15C14.4001 7.05 14.4701 7 14.5901 7ZM16.0301 13.12L13.9901 19.51C13.9501 19.57 13.9601 19.64 14.0201 19.72C14.0801 19.8 14.1401 19.84 14.2001 19.84H18.3401C18.4001 19.84 18.4601 19.8 18.5201 19.72C18.5601 19.64 18.5701 19.57 18.5501 19.51L16.5101 13.12C16.4701 13.02 16.3901 12.97 16.2701 12.97C16.1501 12.97 16.0701 13.02 16.0301 13.12Z" fill="white"/>
<path d="M5.44434 24.5C6.30345 25.988 12.4281 24.0603 19.1242 20.1943C25.8203 16.3283 30.5522 11.988 29.693 10.5" stroke="url(#paint1_linear_200_120486)" stroke-width="1.94444"/>
<defs>
<linearGradient id="paint0_linear_200_120486" x1="3.88866" y1="21.7774" x2="6.99981" y2="27.166" gradientUnits="userSpaceOnUse">
<stop stop-color="#A170FF"/>
<stop offset="1" stop-color="#FFB7B7"/>
</linearGradient>
<linearGradient id="paint1_linear_200_120486" x1="-8.03529" y1="28.7427" x2="-4.94695" y2="34.0918" gradientUnits="userSpaceOnUse">
<stop stop-color="#AB80FF"/>
<stop offset="1" stop-color="#FF9ADB"/>
</linearGradient>
</defs>
</svg>
